<mxfile host="app.diagrams.net" modified="2024-01-20T11:51:41.709Z" agent="Mozilla/5.0 (X11; Linux x86_64) AppleWebKit/537.36 (KHTML, like Gecko) Chrome/120.0.0.0 Safari/537.36" etag="WgXc5_MofoLhmaHJUevn" version="22.1.21" type="device">
  <diagram name="Страница — 1" id="IH5rO4ePXmc0Pb1DMHRw">
    <mxGraphModel dx="1434" dy="742" grid="1" gridSize="10" guides="1" tooltips="1" connect="1" arrows="1" fold="1" page="1" pageScale="1" pageWidth="827" pageHeight="1169" math="0" shadow="0">
      <root>
        <mxCell id="0" />
        <mxCell id="1" parent="0" />
        <mxCell id="A9W7-lfBAmSmIjmfJDp2-12" value="" style="rounded=1;whiteSpace=wrap;html=1;" parent="1" vertex="1">
          <mxGeometry x="60" y="80" width="280" height="320" as="geometry" />
        </mxCell>
        <mxCell id="A9W7-lfBAmSmIjmfJDp2-13" value="" style="rounded=1;whiteSpace=wrap;html=1;" parent="1" vertex="1">
          <mxGeometry x="70" y="150" width="120" height="60" as="geometry" />
        </mxCell>
        <mxCell id="A9W7-lfBAmSmIjmfJDp2-14" value="" style="rounded=1;whiteSpace=wrap;html=1;" parent="1" vertex="1">
          <mxGeometry x="210" y="150" width="120" height="60" as="geometry" />
        </mxCell>
        <mxCell id="A9W7-lfBAmSmIjmfJDp2-29" style="edgeStyle=orthogonalEdgeStyle;rounded=0;orthogonalLoop=1;jettySize=auto;html=1;exitX=1;exitY=0.5;exitDx=0;exitDy=0;entryX=0.75;entryY=1;entryDx=0;entryDy=0;" parent="1" source="A9W7-lfBAmSmIjmfJDp2-15" target="A9W7-lfBAmSmIjmfJDp2-14" edge="1">
          <mxGeometry relative="1" as="geometry" />
        </mxCell>
        <mxCell id="A9W7-lfBAmSmIjmfJDp2-30" style="edgeStyle=orthogonalEdgeStyle;rounded=0;orthogonalLoop=1;jettySize=auto;html=1;exitX=0;exitY=0.5;exitDx=0;exitDy=0;entryX=0.25;entryY=1;entryDx=0;entryDy=0;" parent="1" source="A9W7-lfBAmSmIjmfJDp2-15" target="A9W7-lfBAmSmIjmfJDp2-13" edge="1">
          <mxGeometry relative="1" as="geometry" />
        </mxCell>
        <mxCell id="A9W7-lfBAmSmIjmfJDp2-15" value="" style="rounded=1;whiteSpace=wrap;html=1;" parent="1" vertex="1">
          <mxGeometry x="140" y="220" width="120" height="60" as="geometry" />
        </mxCell>
        <mxCell id="A9W7-lfBAmSmIjmfJDp2-32" style="edgeStyle=orthogonalEdgeStyle;rounded=0;orthogonalLoop=1;jettySize=auto;html=1;exitX=0.5;exitY=0;exitDx=0;exitDy=0;entryX=0.5;entryY=1;entryDx=0;entryDy=0;" parent="1" source="A9W7-lfBAmSmIjmfJDp2-16" target="A9W7-lfBAmSmIjmfJDp2-15" edge="1">
          <mxGeometry relative="1" as="geometry" />
        </mxCell>
        <mxCell id="A9W7-lfBAmSmIjmfJDp2-42" style="edgeStyle=orthogonalEdgeStyle;rounded=0;orthogonalLoop=1;jettySize=auto;html=1;exitX=0;exitY=0.5;exitDx=0;exitDy=0;entryX=1;entryY=0.5;entryDx=0;entryDy=0;" parent="1" source="A9W7-lfBAmSmIjmfJDp2-16" target="A9W7-lfBAmSmIjmfJDp2-41" edge="1">
          <mxGeometry relative="1" as="geometry" />
        </mxCell>
        <mxCell id="A9W7-lfBAmSmIjmfJDp2-16" value="" style="rounded=1;whiteSpace=wrap;html=1;" parent="1" vertex="1">
          <mxGeometry x="210" y="320" width="120" height="60" as="geometry" />
        </mxCell>
        <mxCell id="A9W7-lfBAmSmIjmfJDp2-19" value="&lt;font style=&quot;font-size: 26px;&quot;&gt;Metamath&lt;/font&gt;" style="text;html=1;strokeColor=none;fillColor=none;align=center;verticalAlign=middle;whiteSpace=wrap;rounded=0;" parent="1" vertex="1">
          <mxGeometry x="100" y="165" width="60" height="30" as="geometry" />
        </mxCell>
        <mxCell id="A9W7-lfBAmSmIjmfJDp2-20" value="&lt;font style=&quot;font-size: 26px;&quot;&gt;Parallel&lt;/font&gt;" style="text;html=1;strokeColor=none;fillColor=none;align=center;verticalAlign=middle;whiteSpace=wrap;rounded=0;" parent="1" vertex="1">
          <mxGeometry x="240" y="165" width="60" height="30" as="geometry" />
        </mxCell>
        <mxCell id="A9W7-lfBAmSmIjmfJDp2-21" value="&lt;font style=&quot;font-size: 26px;&quot;&gt;Mesh&lt;/font&gt;" style="text;html=1;strokeColor=none;fillColor=none;align=center;verticalAlign=middle;whiteSpace=wrap;rounded=0;" parent="1" vertex="1">
          <mxGeometry x="170" y="235" width="60" height="30" as="geometry" />
        </mxCell>
        <mxCell id="A9W7-lfBAmSmIjmfJDp2-22" value="&lt;font style=&quot;font-size: 26px;&quot;&gt;Solvers&lt;/font&gt;" style="text;html=1;strokeColor=none;fillColor=none;align=center;verticalAlign=middle;whiteSpace=wrap;rounded=0;" parent="1" vertex="1">
          <mxGeometry x="240" y="335" width="60" height="30" as="geometry" />
        </mxCell>
        <mxCell id="A9W7-lfBAmSmIjmfJDp2-37" value="&lt;font style=&quot;font-size: 26px;&quot;&gt;Математическое ядро&lt;br&gt;&lt;/font&gt;" style="text;html=1;strokeColor=none;fillColor=none;align=center;verticalAlign=middle;whiteSpace=wrap;rounded=0;" parent="1" vertex="1">
          <mxGeometry x="170" y="100" width="60" height="30" as="geometry" />
        </mxCell>
        <mxCell id="A9W7-lfBAmSmIjmfJDp2-41" value="" style="rounded=1;whiteSpace=wrap;html=1;" parent="1" vertex="1">
          <mxGeometry x="70" y="320" width="120" height="60" as="geometry" />
        </mxCell>
        <mxCell id="A9W7-lfBAmSmIjmfJDp2-43" value="&lt;font style=&quot;font-size: 26px;&quot;&gt;Eigen&lt;/font&gt;" style="text;html=1;strokeColor=none;fillColor=none;align=center;verticalAlign=middle;whiteSpace=wrap;rounded=0;" parent="1" vertex="1">
          <mxGeometry x="100" y="335" width="60" height="30" as="geometry" />
        </mxCell>
        <mxCell id="A9W7-lfBAmSmIjmfJDp2-46" style="edgeStyle=orthogonalEdgeStyle;rounded=0;orthogonalLoop=1;jettySize=auto;html=1;exitX=0.5;exitY=1;exitDx=0;exitDy=0;" parent="1" source="A9W7-lfBAmSmIjmfJDp2-12" target="A9W7-lfBAmSmIjmfJDp2-12" edge="1">
          <mxGeometry relative="1" as="geometry" />
        </mxCell>
        <mxCell id="A9W7-lfBAmSmIjmfJDp2-53" value="" style="rounded=1;whiteSpace=wrap;html=1;" parent="1" vertex="1">
          <mxGeometry x="350" y="80" width="240" height="320" as="geometry" />
        </mxCell>
        <mxCell id="A9W7-lfBAmSmIjmfJDp2-47" value="&lt;font style=&quot;font-size: 26px;&quot;&gt;Обработчик&lt;br&gt;конфигурационных&lt;br&gt;файлов&lt;/font&gt;" style="text;html=1;strokeColor=none;fillColor=none;align=center;verticalAlign=middle;whiteSpace=wrap;rounded=0;" parent="1" vertex="1">
          <mxGeometry x="440" y="120" width="60" height="30" as="geometry" />
        </mxCell>
        <mxCell id="A9W7-lfBAmSmIjmfJDp2-51" value="" style="rounded=1;whiteSpace=wrap;html=1;" parent="1" vertex="1">
          <mxGeometry x="380" y="220" width="180" height="60" as="geometry" />
        </mxCell>
        <mxCell id="A9W7-lfBAmSmIjmfJDp2-52" value="&lt;font style=&quot;font-size: 26px;&quot;&gt;nlohmann/json&lt;/font&gt;" style="text;html=1;strokeColor=none;fillColor=none;align=center;verticalAlign=middle;whiteSpace=wrap;rounded=0;" parent="1" vertex="1">
          <mxGeometry x="440" y="235" width="60" height="30" as="geometry" />
        </mxCell>
        <mxCell id="A9W7-lfBAmSmIjmfJDp2-59" style="edgeStyle=orthogonalEdgeStyle;rounded=0;orthogonalLoop=1;jettySize=auto;html=1;exitX=0.5;exitY=0;exitDx=0;exitDy=0;entryX=0.5;entryY=1;entryDx=0;entryDy=0;" parent="1" source="A9W7-lfBAmSmIjmfJDp2-55" target="A9W7-lfBAmSmIjmfJDp2-51" edge="1">
          <mxGeometry relative="1" as="geometry" />
        </mxCell>
        <mxCell id="A9W7-lfBAmSmIjmfJDp2-55" value="" style="rounded=1;whiteSpace=wrap;html=1;" parent="1" vertex="1">
          <mxGeometry x="410" y="320" width="120" height="60" as="geometry" />
        </mxCell>
        <mxCell id="A9W7-lfBAmSmIjmfJDp2-23" value="&lt;font style=&quot;font-size: 26px;&quot;&gt;Configs&lt;/font&gt;" style="text;html=1;strokeColor=none;fillColor=none;align=center;verticalAlign=middle;whiteSpace=wrap;rounded=0;" parent="1" vertex="1">
          <mxGeometry x="440" y="335" width="60" height="30" as="geometry" />
        </mxCell>
        <mxCell id="A9W7-lfBAmSmIjmfJDp2-68" style="edgeStyle=orthogonalEdgeStyle;rounded=0;orthogonalLoop=1;jettySize=auto;html=1;exitX=1;exitY=0.5;exitDx=0;exitDy=0;entryX=0.5;entryY=1;entryDx=0;entryDy=0;" parent="1" source="A9W7-lfBAmSmIjmfJDp2-61" target="A9W7-lfBAmSmIjmfJDp2-53" edge="1">
          <mxGeometry relative="1" as="geometry" />
        </mxCell>
        <mxCell id="A9W7-lfBAmSmIjmfJDp2-69" style="edgeStyle=orthogonalEdgeStyle;rounded=0;orthogonalLoop=1;jettySize=auto;html=1;exitX=0;exitY=0.5;exitDx=0;exitDy=0;entryX=0.5;entryY=1;entryDx=0;entryDy=0;" parent="1" source="A9W7-lfBAmSmIjmfJDp2-61" target="A9W7-lfBAmSmIjmfJDp2-12" edge="1">
          <mxGeometry relative="1" as="geometry" />
        </mxCell>
        <mxCell id="A9W7-lfBAmSmIjmfJDp2-61" value="" style="rounded=1;whiteSpace=wrap;html=1;" parent="1" vertex="1">
          <mxGeometry x="250" y="410" width="160" height="60" as="geometry" />
        </mxCell>
        <mxCell id="A9W7-lfBAmSmIjmfJDp2-67" value="&lt;font style=&quot;font-size: 26px;&quot;&gt;NonLocFEM&lt;/font&gt;" style="text;html=1;strokeColor=none;fillColor=none;align=center;verticalAlign=middle;whiteSpace=wrap;rounded=0;" parent="1" vertex="1">
          <mxGeometry x="300" y="425" width="60" height="30" as="geometry" />
        </mxCell>
      </root>
    </mxGraphModel>
  </diagram>
</mxfile>
